<svg xmlns="http://www.w3.org/2000/svg" width="15" height="2" viewBox="0 0 10 20" fill="none">
  <g clip-path="url(#clip0_85_148)">
    <path d="M0.833335 10.7999L17.4579 10.7999L11.0921 16.6206C10.7588 16.9254 10.7458 17.4318 11.0633 17.7518C11.3804 18.0714 11.9079 18.0842 12.2417 17.7794L19.5117 11.1315C19.8263 10.8291 20 10.4275 20 9.9999C20 9.57271 19.8263 9.17071 19.4971 8.85512L12.2413 2.2208C12.08 2.0732 11.8733 2 11.6667 2C11.4467 2 11.2267 2.0832 11.0629 2.2484C10.7454 2.56839 10.7583 3.07439 11.0917 3.37918L17.4842 9.19991L0.833335 9.19991C0.373334 9.19991 7.37996e-07 9.55831 6.99391e-07 9.9999C6.60785e-07 10.4415 0.373334 10.7999 0.833335 10.7999Z" fill="white"/>
  </g>
  <defs>
    <clipPath id="clip0_85_148">
      <rect width="20" height="20" fill="white" transform="translate(20 20) rotate(-180)"/>
    </clipPath>
  </defs>
</svg>