<svg width="170" height="147" viewBox="0 0 170 147" fill="none" xmlns="http://www.w3.org/2000/svg">
<path fill-rule="evenodd" clip-rule="evenodd" d="M56.8627 0.109375L71.385 29.154L70.3623 29.5518C56.7911 34.8295 48.8149 40.1648 44.1886 46.9825C39.565 53.7961 38.1748 62.2539 38.1748 74.0698V74.5848H74.0298V146.78H0.319824V79.6248C0.319824 59.0668 3.87144 42.9309 12.6779 30.0746C21.487 17.2147 35.4608 7.77176 56.0278 0.408295L56.8627 0.109375ZM69.0653 28.9868C42.6025 39.4826 37.1748 50.6084 37.1748 74.0698V75.5848H73.0298V145.78H1.31982V79.6248C1.31982 38.7198 15.4598 15.9948 56.3648 1.34978L69.9998 28.6198C69.6854 28.742 69.3739 28.8643 69.0653 28.9868ZM152.308 0.109375L166.83 29.154L165.807 29.5518C152.236 34.8295 144.26 40.1648 139.634 46.9825C135.01 53.7961 133.62 62.2539 133.62 74.0698V74.5848H169.475V146.78H95.7648V79.6248C95.7648 59.0668 99.3164 42.9309 108.123 30.0746C116.932 17.2147 130.906 7.77176 151.473 0.408295L152.308 0.109375ZM164.51 28.9868C138.047 39.4826 132.62 50.6084 132.62 74.0698V75.5848H168.475V145.78H96.7648V79.6248C96.7648 38.7198 110.905 15.9948 151.81 1.34978L165.445 28.6198C165.13 28.742 164.819 28.8643 164.51 28.9868Z" fill="#A51C30"/>
</svg>
